<svg width="99" height="32" viewBox="0 0 99 32" fill="none" xmlns="http://www.w3.org/2000/svg">
<path fill-rule="evenodd" clip-rule="evenodd" d="M32 16C32 24.8366 24.8366 32 16 32C7.16344 32 0 24.8366 0 16C0 7.16344 7.16344 0 16 0C24.8366 0 32 7.16344 32 16ZM24 16C24 20.4183 20.4183 24 16 24C11.5817 24 8 20.4183 8 16C8 11.5817 11.5817 8 16 8C20.4183 8 24 11.5817 24 16ZM16 21.3333C18.9455 21.3333 21.3333 18.9455 21.3333 16C21.3333 13.0545 18.9455 10.6667 16 10.6667C13.0545 10.6667 10.6667 13.0545 10.6667 16C10.6667 18.9455 13.0545 21.3333 16 21.3333Z" fill="#FA8232"/>
<path d="M46.867 23.18C45.637 23.18 44.572 22.913 43.672 22.379C42.778 21.839 42.085 21.074 41.593 20.084C41.107 19.088 40.864 17.9 40.864 16.52C40.864 15.134 41.11 13.94 41.602 12.938C42.1 11.936 42.799 11.165 43.699 10.625C44.599 10.079 45.655 9.806 46.867 9.806C48.073 9.806 49.123 10.076 50.017 10.616C50.911 11.156 51.601 11.927 52.087 12.929C52.579 13.931 52.825 15.128 52.825 16.52C52.825 17.894 52.582 19.079 52.096 20.075C51.616 21.071 50.929 21.839 50.035 22.379C49.141 22.913 48.085 23.18 46.867 23.18ZM46.867 21.02C47.503 21.02 48.052 20.87 48.514 20.57C48.982 20.264 49.342 19.784 49.594 19.13C49.846 18.47 49.972 17.612 49.972 16.556C49.972 15.47 49.843 14.591 49.585 13.919C49.333 13.247 48.973 12.755 48.505 12.443C48.043 12.125 47.497 11.966 46.867 11.966C46.237 11.966 45.688 12.125 45.22 12.443C44.752 12.755 44.389 13.25 44.131 13.928C43.873 14.6 43.744 15.476 43.744 16.556C43.744 17.618 43.873 18.476 44.131 19.13C44.389 19.784 44.752 20.264 45.22 20.57C45.688 20.87 46.237 21.02 46.867 21.02ZM54.7914 23V9.986H60.2814C61.3194 9.986 62.1684 10.151 62.8284 10.481C63.4884 10.811 63.9744 11.27 64.2864 11.858C64.5984 12.44 64.7544 13.112 64.7544 13.874C64.7544 14.558 64.6464 15.137 64.4304 15.611C64.2204 16.079 63.9414 16.469 63.5934 16.781C63.2514 17.093 62.8764 17.348 62.4684 17.546L64.8894 23H62.1624L60.0474 17.987H57.4104V23H54.7914ZM57.4104 15.962H59.8134C60.5154 15.962 61.0704 15.773 61.4784 15.395C61.8924 15.017 62.0994 14.531 62.0994 13.937C62.0994 13.337 61.9014 12.863 61.5054 12.515C61.1094 12.167 60.6084 11.993 60.0024 11.993H57.4104V15.962ZM66.9646 23V9.986H69.5836V23H66.9646ZM77.5507 23.18C76.3207 23.18 75.2557 22.913 74.3557 22.379C73.4617 21.839 72.7687 21.074 72.2767 20.084C71.7907 19.088 71.5477 17.9 71.5477 16.52C71.5477 15.134 71.7937 13.94 72.2857 12.938C72.7837 11.936 73.4827 11.165 74.3827 10.625C75.2827 10.079 76.3387 9.806 77.5507 9.806C78.7567 9.806 79.8067 10.076 80.7007 10.616C81.5947 11.156 82.2847 11.927 82.7707 12.929C83.2627 13.931 83.5087 15.128 83.5087 16.52C83.5087 17.894 83.2657 19.079 82.7797 20.075C82.2997 21.071 81.6127 21.839 80.7187 22.379C79.8247 22.913 78.7687 23.18 77.5507 23.18ZM77.5507 21.02C78.1867 21.02 78.7357 20.87 79.1977 20.57C79.6657 20.264 80.0257 19.784 80.2777 19.13C80.5297 18.47 80.6557 17.612 80.6557 16.556C80.6557 15.47 80.5267 14.591 80.2687 13.919C80.0167 13.247 79.6567 12.755 79.1887 12.443C78.7267 12.125 78.1807 11.966 77.5507 11.966C76.9207 11.966 76.3717 12.125 75.9037 12.443C75.4357 12.755 75.0727 13.25 74.8147 13.928C74.5567 14.6 74.4277 15.476 74.4277 16.556C74.4277 17.618 74.5567 18.476 74.8147 19.13C75.0727 19.784 75.4357 20.264 75.9037 20.57C76.3717 20.87 76.9207 21.02 77.5507 21.02ZM85.475 23V9.986H88.076L94.016 18.599V9.986H96.644V23H94.277L88.094 14.045V23H85.475Z" fill="#191C1F"/>
</svg>
